<?xml version="1.0" encoding="UTF-8" standalone="no"?>
<svg
   xmlns:dc="http://purl.org/dc/elements/1.1/"
   xmlns:cc="http://creativecommons.org/ns#"
   xmlns:rdf="http://www.w3.org/1999/02/22-rdf-syntax-ns#"
   xmlns:svg="http://www.w3.org/2000/svg"
   xmlns="http://www.w3.org/2000/svg"
   viewBox="0 0 1326.2667 127.4"
   height="127.4"
   width="1326.2667"
   xml:space="preserve"
   id="svg2"
   version="1.1"><metadata
     id="metadata8"><rdf:RDF><cc:Work
         rdf:about=""><dc:format>image/svg+xml</dc:format><dc:type
           rdf:resource="http://purl.org/dc/dcmitype/StillImage" /></cc:Work></rdf:RDF></metadata><defs
     id="defs6" /><g
     transform="matrix(1.3333333,0,0,-1.3333333,0,127.4)"
     id="g10"><g
       transform="scale(0.1)"
       id="g12"><path
         id="path14"
         style="fill:#211b19;fill-opacity:1;fill-rule:nonzero;stroke:none"
         d="M 0,626.605 H 130.355 V 530.32 c 24.672,34.559 56.778,62.957 96.29,85.176 39.488,22.223 80.96,34.305 124.429,36.297 0.977,0 2.227,0 3.707,0 1.481,0 3.192,0 5.184,0 7.89,0 15.789,-0.254 23.703,-0.742 7.891,-0.508 15.785,-1.735 23.699,-3.703 10.856,-1.993 21.227,-4.442 31.11,-7.407 9.859,-2.964 19.257,-6.433 28.144,-10.371 49.371,-19.765 79.484,-50.875 90.359,-93.324 10.856,-42.473 16.297,-87.398 16.297,-134.801 0,-0.996 0,-2.226 0,-3.703 0,-1.48 0,-2.73 0,-3.711 V 34.0703 H 436.992 V 339.23 c 0,50.36 -6.429,95.293 -19.254,134.797 -12.843,39.489 -48.886,59.258 -108.136,59.258 H 293.305 C 220.211,529.324 176.277,505.371 161.465,461.438 146.648,417.48 138.254,365.383 136.285,305.156 V 34.0703 H 0 V 626.605" /><path
         id="path16"
         style="fill:#211b19;fill-opacity:1;fill-rule:nonzero;stroke:none"
         d="m 1129.5,501.438 c -26.17,21.222 -62.47,31.847 -108.87,31.847 -45.439,0 -80.989,-11.367 -106.661,-34.07 -25.692,-22.731 -44.442,-54.32 -56.293,-94.813 h 321.454 c -6.92,43.45 -23.47,75.786 -49.63,97.036 z m 154.8,5.921 c 24.67,-56.8 37.04,-118.765 37.04,-185.906 V 309.602 H 847.309 c 3.929,-41.477 15.55,-78.032 34.808,-109.622 19.262,-31.613 51.594,-52.351 97.028,-62.214 7.898,-0.996 15.304,-2.219 22.225,-3.703 6.9,-1.485 13.33,-2.227 19.26,-2.227 38.51,0 73.07,11.602 103.69,34.816 30.6,23.192 56.29,51.59 77.03,85.172 l 112.58,-63.687 C 1279.35,130.852 1238.87,87.4023 1192.46,57.7734 1146.03,28.1445 1089.74,13.3281 1023.59,13.3281 l -29.629,-1.4726 c -88.883,5.9179 -159.016,38.7422 -210.352,98.5035 -51.359,59.739 -77.027,130.11 -77.027,211.094 0,6.899 0.231,14.074 0.738,21.477 0.489,7.414 1.231,14.558 2.223,21.484 0.969,1.965 1.48,3.938 1.48,5.918 0,1.973 0,3.938 0,5.93 0.973,2.968 1.715,5.926 2.223,8.886 0.484,2.965 0.742,5.926 0.742,8.883 12.825,79.004 48.375,141.707 106.657,188.137 58.257,46.406 123.921,69.625 197.015,69.625 14.82,0 29.86,-0.996 45.18,-2.965 15.3,-1.992 30.86,-4.949 46.67,-8.887 4.92,-1.992 10.11,-3.707 15.55,-5.183 5.41,-1.481 10.6,-3.219 15.55,-5.188 71.11,-24.699 118.99,-65.433 143.69,-122.211" /><path
         id="path18"
         style="fill:#211b19;fill-opacity:1;fill-rule:nonzero;stroke:none"
         d="m 1646.47,170.352 c 31.11,-24.7 64.44,-37.539 99.99,-38.516 0.97,0 1.97,0 2.96,0 0.98,0 1.97,0 2.97,0 2.96,0 5.67,0 8.14,0 2.46,0 5.19,0 8.15,0 43.45,4.934 83.19,24.68 119.25,59.258 36.04,34.558 54.07,80.476 54.07,137.765 0,52.332 -17.78,98.25 -53.33,137.762 -35.55,39.488 -79.5,59.258 -131.84,59.258 h -20.74 c -47.4,-5.93 -85.43,-28.149 -114.06,-66.66 -28.66,-38.516 -43.47,-80.508 -44.44,-125.918 0,-0.996 0,-1.738 0,-2.215 0,-0.512 0,-1.25 0,-2.227 0,-5.929 0.49,-12.101 1.48,-18.515 0.97,-6.438 1.97,-12.59 2.96,-18.52 0.97,-1.988 1.72,-4.207 2.22,-6.668 0.49,-2.468 0.75,-4.695 0.75,-6.66 9.85,-47.402 30.36,-83.469 61.47,-108.144 z m -113.32,388.117 c 67.14,60.222 143.18,90.359 228.12,90.359 6.9,0 14.31,-0.254 22.23,-0.742 7.89,-0.508 16.29,-1.734 25.18,-3.699 5.92,0 11.85,-0.742 17.78,-2.223 5.92,-1.484 11.85,-2.734 17.77,-3.707 70.11,-17.773 127.88,-56.543 173.32,-116.285 45.41,-59.762 68.14,-124.684 68.14,-194.801 0,-2.957 0,-6.172 0,-9.629 0,-3.465 0,-6.656 0,-9.629 -1,-2.957 -1.48,-6.172 -1.48,-9.617 0,-3.476 0,-6.672 0,-9.629 -10.88,-80.996 -47.92,-147.168 -111.1,-198.5076 -63.22,-51.3555 -134.32,-77.0313 -213.32,-77.0313 -86.91,0 -163.2,30.8633 -228.86,92.5899 -65.69,61.711 -98.51,137.023 -98.51,225.906 0,90.844 33.56,166.395 100.73,226.645" /><path
         id="path20"
         style="fill:#211b19;fill-opacity:1;fill-rule:nonzero;stroke:none"
         d="m 2635.26,499.949 c -20.74,10.371 -41.48,17.528 -62.21,21.481 -7.92,0.976 -15.56,1.968 -22.97,2.965 -7.4,0.972 -15.06,1.484 -22.96,1.484 -47.4,0 -89.62,-16.301 -126.65,-48.887 -37.03,-32.59 -55.55,-79.988 -55.55,-142.207 0,-50.371 12.82,-94.062 38.51,-131.101 25.67,-37.032 64.19,-59.016 115.55,-65.918 1.97,0 3.94,-0.254 5.92,-0.743 1.97,-0.507 3.94,-0.734 5.93,-0.734 1.97,0 3.45,-0.262 4.44,-0.742 0.98,-0.508 1.97,-0.742 2.97,-0.742 2.96,-0.996 5.92,-1.739 8.88,-2.227 2.97,-0.508 5.42,-0.742 7.41,-0.742 30.6,0 59,6.902 85.18,20.742 26.15,13.82 50.11,32.59 71.84,56.289 V 53.3281 c -12.84,-5.9258 -25.69,-11.1093 -38.51,-15.5547 -12.85,-4.4453 -25.69,-8.1445 -38.52,-11.1015 -16.8,-4.9336 -33.33,-8.3789 -49.62,-10.3711 -16.3,-1.9766 -31.85,-2.9727 -46.66,-2.9727 -83.95,0 -157.28,28.6367 -219.98,85.9219 -62.73,57.266 -94.07,135.777 -94.07,235.535 0,96.77 32.82,172.809 98.51,228.125 65.66,55.297 140.47,82.953 224.42,82.953 10.86,0 22.23,-0.508 34.08,-1.476 11.85,-0.996 23.7,-2.477 35.55,-4.446 15.78,-2.964 31.85,-6.921 48.14,-11.851 16.3,-4.953 31.85,-10.879 46.66,-17.777 V 459.219 c -16.8,16.777 -35.55,30.367 -56.29,40.73" /><path
         id="path22"
         style="fill:#211b19;fill-opacity:1;fill-rule:nonzero;stroke:none"
         d="m 3027.07,170.352 c 31.1,-24.7 64.43,-37.539 99.99,-38.516 0.97,0 1.96,0 2.96,0 0.97,0 1.97,0 2.96,0 2.97,0 5.67,0 8.15,0 2.45,0 5.18,0 8.15,0 43.44,4.934 83.19,24.68 119.25,59.258 36.04,34.558 54.06,80.476 54.06,137.765 0,52.332 -17.77,98.25 -53.32,137.762 -35.55,39.488 -79.51,59.258 -131.84,59.258 h -20.74 c -47.4,-5.93 -85.44,-28.149 -114.06,-66.66 -28.66,-38.516 -43.47,-80.508 -44.45,-125.918 0,-0.996 0,-1.738 0,-2.215 0,-0.512 0,-1.25 0,-2.227 0,-5.929 0.49,-12.101 1.49,-18.515 0.97,-6.438 1.96,-12.59 2.96,-18.52 0.97,-1.988 1.71,-4.207 2.22,-6.668 0.49,-2.468 0.74,-4.695 0.74,-6.66 9.86,-47.402 30.37,-83.469 61.48,-108.144 z m -113.32,388.117 c 67.14,60.222 143.17,90.359 228.12,90.359 6.9,0 14.31,-0.254 22.22,-0.742 7.89,-0.508 16.3,-1.734 25.18,-3.699 5.93,0 11.85,-0.742 17.78,-2.223 5.92,-1.484 11.85,-2.734 17.77,-3.707 70.12,-17.773 127.89,-56.543 173.32,-116.285 45.41,-59.762 68.14,-124.684 68.14,-194.801 0,-2.957 0,-6.172 0,-9.629 0,-3.465 0,-6.656 0,-9.629 -0.99,-2.957 -1.48,-6.172 -1.48,-9.617 0,-3.476 0,-6.672 0,-9.629 -10.87,-80.996 -47.91,-147.168 -111.1,-198.5076 -63.21,-51.3555 -134.32,-77.0313 -213.31,-77.0313 -86.91,0 -163.2,30.8633 -228.87,92.5899 -65.69,61.711 -98.51,137.023 -98.51,225.906 0,90.844 33.57,166.395 100.74,226.645" /><path
         id="path24"
         style="fill:#211b19;fill-opacity:1;fill-rule:nonzero;stroke:none"
         d="m 3612.93,626.605 h 130.36 V 530.32 c 24.67,34.559 56.78,62.957 96.29,85.176 39.49,22.223 80.96,34.305 124.43,36.297 0.98,0 2.23,0 3.7,0 1.48,0 3.2,0 5.19,0 7.89,0 15.79,-0.254 23.7,-0.742 7.89,-0.508 15.79,-1.735 23.7,-3.703 10.86,-1.993 21.23,-4.442 31.11,-7.407 9.86,-2.964 19.26,-6.433 28.15,-10.371 49.37,-19.765 79.48,-50.875 90.36,-93.324 10.85,-42.473 16.29,-87.398 16.29,-134.801 0,-0.996 0,-2.226 0,-3.703 0,-1.48 0,-2.73 0,-3.711 V 34.0703 H 4049.93 V 339.23 c 0,50.36 -6.43,95.293 -19.26,134.797 -12.84,39.489 -48.88,59.258 -108.14,59.258 h -16.29 c -73.1,-3.961 -117.03,-27.914 -131.84,-71.847 -14.82,-43.958 -23.21,-96.055 -25.18,-156.282 V 34.0703 H 3612.93 V 626.605" /><path
         id="path26"
         style="fill:#211b19;fill-opacity:1;fill-rule:nonzero;stroke:none"
         d="m 4429.14,204.426 c 8.88,-28.653 25.92,-51.848 51.1,-69.621 25.18,-17.774 51.59,-26.668 79.25,-26.668 4.93,0 10.37,0.488 16.3,1.48 5.92,0.981 11.85,2.453 17.77,4.446 3.94,1.972 7.9,3.703 11.86,5.187 3.93,1.484 8.37,3.191 13.33,5.184 0.97,0 2.22,0.234 3.7,0.742 1.48,0.488 2.71,1.23 3.7,2.219 7.89,4.929 14.82,12.089 20.74,21.484 5.93,9.375 9.86,19.004 11.85,28.887 0.97,1.961 1.48,3.933 1.48,5.925 0,1.961 0,3.938 0,5.918 0,1.973 -0.25,4.192 -0.74,6.668 -0.51,2.453 -0.74,5.188 -0.74,8.149 0,0.976 -0.25,1.972 -0.74,2.969 -0.51,0.964 -0.74,1.96 -0.74,2.957 0,1.964 -0.25,3.703 -0.74,5.183 -0.51,1.488 -0.74,2.707 -0.74,3.703 -6.92,12.825 -17.55,23.45 -31.85,31.848 -14.33,8.379 -29.39,15.047 -45.18,20 -9.88,3.934 -19.51,7.41 -28.89,10.367 -9.4,2.961 -18.03,5.93 -25.92,8.891 -1,0.972 -1.99,1.719 -2.96,2.222 -1,0.493 -2,0.747 -2.97,0.747 -4.95,1.96 -9.63,3.699 -14.07,5.183 -4.44,1.477 -9.14,3.195 -14.07,5.176 -28.65,12.82 -55.55,28.887 -80.73,48.144 -25.18,19.258 -42.22,44.676 -51.11,76.289 -0.99,3.938 -2.22,8.157 -3.7,12.598 -1.48,4.445 -2.73,9.121 -3.7,14.074 -1,3.934 -1.74,8.145 -2.23,12.586 -0.51,4.446 -0.74,8.633 -0.74,12.594 0,51.336 22.96,92.074 68.88,122.211 45.93,30.113 96.03,45.664 150.36,46.66 0.97,0 1.71,0 2.22,0 0.48,0 1.23,0 2.22,0 2.97,0 6.16,0 9.63,0 3.45,0 7.16,0 11.11,0 35.55,-2.965 69.37,-12.359 101.47,-28.144 32.08,-15.813 56.04,-38.516 71.85,-68.145 l -96.29,-66.66 c -4.95,14.812 -15.32,27.406 -31.11,37.777 -15.81,10.367 -32.1,17.52 -48.88,21.481 -4.95,0.972 -9.4,1.711 -13.33,2.222 -3.96,0.485 -7.92,0.739 -11.85,0.739 -12.85,0 -25.7,-2.961 -38.52,-8.887 -12.85,-5.926 -23.21,-14.328 -31.11,-25.184 -0.99,-0.996 -1.73,-2.218 -2.22,-3.707 -0.51,-1.476 -1.25,-3.215 -2.22,-5.183 -1,-0.996 -1.74,-2.477 -2.22,-4.446 -0.51,-1.984 -1.25,-3.953 -2.23,-5.921 -0.99,-2.961 -1.73,-5.692 -2.22,-8.149 -0.5,-2.476 -0.74,-4.695 -0.74,-6.664 0,-9.891 2.71,-19.027 8.15,-27.406 5.42,-8.399 12.08,-16.067 20,-22.961 11.85,-8.887 26.89,-17.031 45.18,-24.442 18.26,-7.406 37.26,-14.582 57.03,-21.476 0.97,0 1.97,-0.254 2.96,-0.742 0.97,-0.508 2.46,-1.25 4.44,-2.227 12.83,-3.957 25.93,-8.398 39.26,-13.332 13.33,-4.949 25.42,-10.367 36.3,-16.297 25.67,-12.84 45.91,-29.875 60.73,-51.101 14.81,-21.25 25.18,-43.215 31.11,-65.918 0.97,-6.926 1.96,-13.586 2.96,-20 0.97,-6.438 1.48,-12.59 1.48,-18.52 0,-1.988 0,-3.953 0,-5.926 0,-1.98 0,-4.441 0,-7.402 -2.96,-31.621 -14.81,-61.727 -35.55,-90.3593 -20.74,-28.6563 -49.88,-48.8868 -87.4,-60.7344 -9.88,-2.9688 -20.25,-5.6719 -31.11,-8.1524 -10.88,-2.4531 -21.73,-4.6679 -32.58,-6.6601 -8.9,-0.9805 -17.78,-1.7227 -26.67,-2.2305 -8.89,-0.4844 -17.29,-0.7422 -25.19,-0.7422 -47.4,0 -92.83,10.3711 -136.27,31.1133 -43.48,20.7344 -77.04,53.332 -100.74,97.7656 l 112.59,62.219" /><path
         id="path28"
         style="fill:#211b19;fill-opacity:1;fill-rule:nonzero;stroke:none"
         d="m 5011.3,509.578 h -106.66 v 117.027 h 106.66 v 226.649 h 133.32 V 626.605 h 103.69 V 509.578 H 5144.62 V 34.0703 H 5011.3 V 509.578" /><path
         id="path30"
         style="fill:#211b19;fill-opacity:1;fill-rule:nonzero;stroke:none"
         d="m 5565.31,606.609 c 17.78,22.219 41.97,35.301 72.58,39.254 1.97,0 4.19,0.235 6.67,0.742 2.45,0.489 5.19,0.743 8.15,0.743 0.97,0 1.97,0 2.96,0 0.97,0 1.97,0 2.96,0 1.98,0.972 3.7,1.48 5.19,1.48 1.48,0 3.19,0 5.18,0 7.89,0 16.04,-0.508 24.45,-1.48 8.38,-0.996 17.03,-2.481 25.92,-4.442 9.86,-2.965 20,-6.183 30.37,-9.629 10.37,-3.472 20.48,-7.179 30.37,-11.113 l -51.86,-115.543 c -6.91,4.926 -14.58,8.887 -22.96,11.852 -8.4,2.957 -17.03,5.414 -25.91,7.406 -5.93,1.969 -11.86,3.191 -17.79,3.699 -5.92,0.488 -11.36,0.742 -16.29,0.742 -2.96,0 -6.18,0 -9.63,0 -3.47,0 -7.17,-0.511 -11.11,-1.48 -3.95,0 -7.66,-0.512 -11.1,-1.481 -3.48,-0.996 -6.67,-1.992 -9.63,-2.964 -27.67,-10.879 -47.4,-29.395 -59.26,-55.547 -11.85,-26.18 -19.77,-54.071 -23.7,-83.7 -1,-11.847 -1.74,-23.468 -2.23,-34.804 -0.51,-11.367 -0.73,-22.485 -0.73,-33.332 0,-1.992 0,-3.711 0,-5.188 0,-1.48 0.48,-3.219 1.47,-5.183 0,-1.993 0,-3.7 0,-5.188 0,-1.48 0,-3.219 0,-5.183 V 34.0703 H 5383.11 V 629.57 h 136.27 v -96.285 c 12.83,26.66 28.15,51.106 45.93,73.324" /><path
         id="path32"
         style="fill:#211b19;fill-opacity:1;fill-rule:nonzero;stroke:none"
         d="m 6040.81,293.313 c 0,-52.368 11.11,-92.356 33.33,-119.993 22.23,-27.668 61.48,-41.484 117.77,-41.484 58.26,1.973 98,15.793 119.25,41.484 21.22,25.664 31.85,65.664 31.85,119.993 v 333.292 h 137.76 v -291.82 c 0,-101.726 -20.51,-180.722 -61.47,-237.0116 -41,-56.2968 -115.8,-84.4453 -224.43,-84.4453 -107.65,0 -182.95,26.8985 -225.91,80.7344 -42.95,53.8205 -64.43,129.6215 -64.43,227.3905 0,0.969 0,1.965 0,2.961 0,0.977 0.49,2.449 1.49,4.445 0,0.977 0,1.969 0,2.965 0,0.969 0,1.965 0,2.961 v 291.82 h 134.79 V 293.313" /><path
         id="path34"
         style="fill:#211b19;fill-opacity:1;fill-rule:nonzero;stroke:none"
         d="m 7046.61,499.949 c -20.73,10.371 -41.47,17.528 -62.22,21.481 -7.91,0.976 -15.54,1.968 -22.95,2.965 -7.41,0.972 -15.07,1.484 -22.96,1.484 -47.41,0 -89.62,-16.301 -126.65,-48.887 -37.04,-32.59 -55.56,-79.988 -55.56,-142.207 0,-50.371 12.82,-94.062 38.52,-131.101 25.67,-37.032 64.18,-59.016 115.54,-65.918 1.96,0 3.94,-0.254 5.93,-0.743 1.96,-0.507 3.94,-0.734 5.92,-0.734 1.97,0 3.45,-0.262 4.45,-0.742 0.97,-0.508 1.96,-0.742 2.96,-0.742 2.96,-0.996 5.93,-1.739 8.89,-2.227 2.96,-0.508 5.42,-0.742 7.41,-0.742 30.59,0 58.99,6.902 85.17,20.742 26.16,13.82 50.11,32.59 71.85,56.289 V 53.3281 c -12.85,-5.9258 -25.69,-11.1093 -38.52,-15.5547 -12.85,-4.4453 -25.69,-8.1445 -38.51,-11.1015 -16.81,-4.9336 -33.33,-8.3789 -49.63,-10.3711 -16.29,-1.9766 -31.85,-2.9727 -46.66,-2.9727 -83.96,0 -157.28,28.6367 -219.98,85.9219 -62.73,57.266 -94.06,135.777 -94.06,235.535 0,96.77 32.82,172.809 98.5,228.125 65.67,55.297 140.48,82.953 224.43,82.953 10.86,0 22.21,-0.508 34.07,-1.476 11.84,-0.996 23.7,-2.477 35.55,-4.446 15.79,-2.964 31.85,-6.921 48.14,-11.851 16.3,-4.953 31.86,-10.879 46.67,-17.777 V 459.219 c -16.81,16.777 -35.56,30.367 -56.3,40.73" /><path
         id="path36"
         style="fill:#211b19;fill-opacity:1;fill-rule:nonzero;stroke:none"
         d="m 7338.43,509.578 h -106.66 v 117.027 h 106.66 v 226.649 h 133.32 V 626.605 h 103.69 V 509.578 H 7471.75 V 34.0703 H 7338.43 V 509.578" /><path
         id="path38"
         style="fill:#211b19;fill-opacity:1;fill-rule:nonzero;stroke:none"
         d="m 7710.24,626.605 h 134.81 V 34.0703 h -134.81 z m 129.62,189.618 c -13.33,-16.809 -33.33,-25.188 -60,-25.188 -26.66,0 -46.42,8.379 -59.24,25.188 -12.86,16.773 -19.26,35.55 -19.26,56.289 0,0.968 0,2.218 0,3.703 0,1.48 0,2.707 0,3.703 1.96,18.75 9.37,36.039 22.21,51.844 12.83,15.789 31.6,23.703 56.29,23.703 24.68,0 43.7,-7.914 57.03,-23.703 13.34,-15.805 20.98,-33.094 22.97,-51.844 0,-0.996 0,-2.223 0,-3.703 0,-1.485 0,-2.735 0,-3.703 0,-20.739 -6.67,-39.516 -20,-56.289" /><path
         id="path40"
         style="fill:#211b19;fill-opacity:1;fill-rule:nonzero;stroke:none"
         d="m 7976.87,626.605 h 146.65 l 130.36,-297.746 c 6.89,-12.843 12.33,-26.664 16.3,-41.476 3.92,-14.817 7.4,-29.629 10.36,-44.442 0.97,-1 1.48,-1.996 1.48,-2.961 0,-0.996 0,-1.992 0,-2.968 0.98,-2.957 1.71,-5.696 2.23,-8.145 0.48,-2.469 1.22,-5.183 2.21,-8.144 3.94,19.746 8.89,38.742 14.82,57.031 5.93,18.262 13.33,35.293 22.22,51.105 l 127.4,297.746 h 148.13 L 8286.46,0 7976.87,626.605" /><path
         id="path42"
         style="fill:#211b19;fill-opacity:1;fill-rule:nonzero;stroke:none"
         d="m 8745.66,626.605 h 134.81 V 34.0703 h -134.81 z m 129.62,189.618 c -13.33,-16.809 -33.33,-25.188 -60,-25.188 -26.66,0 -46.42,8.379 -59.24,25.188 -12.86,16.773 -19.26,35.55 -19.26,56.289 0,0.968 0,2.218 0,3.703 0,1.48 0,2.707 0,3.703 1.96,18.75 9.37,36.039 22.21,51.844 12.83,15.789 31.6,23.703 56.29,23.703 24.68,0 43.7,-7.914 57.03,-23.703 13.34,-15.805 20.98,-33.094 22.97,-51.844 0,-0.996 0,-2.223 0,-3.703 0,-1.485 0,-2.735 0,-3.703 0,-20.739 -6.67,-39.516 -20,-56.289" /><path
         id="path44"
         style="fill:#211b19;fill-opacity:1;fill-rule:nonzero;stroke:none"
         d="m 9127.83,204.426 c 8.89,-28.653 25.92,-51.848 51.11,-69.621 25.18,-17.774 51.59,-26.668 79.24,-26.668 4.94,0 10.37,0.488 16.3,1.48 5.93,0.981 11.86,2.453 17.78,4.446 3.93,1.972 7.9,3.703 11.85,5.187 3.94,1.484 8.38,3.191 13.33,5.184 0.98,0 2.23,0.234 3.7,0.742 1.49,0.488 2.72,1.23 3.7,2.219 7.9,4.929 14.82,12.089 20.75,21.484 5.92,9.375 9.86,19.004 11.85,28.887 0.97,1.961 1.48,3.933 1.48,5.925 0,1.961 0,3.938 0,5.918 0,1.973 -0.26,4.192 -0.75,6.668 -0.5,2.453 -0.73,5.188 -0.73,8.149 0,0.976 -0.25,1.972 -0.74,2.969 -0.51,0.964 -0.74,1.96 -0.74,2.957 0,1.964 -0.26,3.703 -0.75,5.183 -0.5,1.488 -0.74,2.707 -0.74,3.703 -6.91,12.825 -17.54,23.45 -31.84,31.848 -14.33,8.379 -29.4,15.047 -45.19,20 -9.88,3.934 -19.51,7.41 -28.89,10.367 -9.39,2.961 -18.02,5.93 -25.91,8.891 -1,0.972 -2,1.719 -2.96,2.222 -1,0.493 -1.99,0.747 -2.97,0.747 -4.95,1.96 -9.63,3.699 -14.07,5.183 -4.45,1.477 -9.14,3.195 -14.08,5.176 -28.65,12.82 -55.54,28.887 -80.73,48.144 -25.18,19.258 -42.21,44.676 -51.1,76.289 -1,3.938 -2.23,8.157 -3.7,12.598 -1.49,4.445 -2.74,9.121 -3.71,14.074 -1,3.934 -1.73,8.145 -2.22,12.586 -0.51,4.446 -0.74,8.633 -0.74,12.594 0,51.336 22.96,92.074 68.87,122.211 45.93,30.113 96.04,45.664 150.37,46.66 0.96,0 1.7,0 2.21,0 0.49,0 1.23,0 2.23,0 2.96,0 6.15,0 9.63,0 3.45,0 7.15,0 11.11,0 35.55,-2.965 69.37,-12.359 101.47,-28.144 32.08,-15.813 56.03,-38.516 71.84,-68.145 l -96.29,-66.66 c -4.95,14.812 -15.32,27.406 -31.1,37.777 -15.81,10.367 -32.1,17.52 -48.89,21.481 -4.95,0.972 -9.39,1.711 -13.33,2.222 -3.95,0.485 -7.92,0.739 -11.84,0.739 -12.85,0 -25.7,-2.961 -38.52,-8.887 -12.85,-5.926 -23.22,-14.328 -31.11,-25.184 -1,-0.996 -1.74,-2.218 -2.22,-3.707 -0.52,-1.476 -1.25,-3.215 -2.23,-5.183 -0.99,-0.996 -1.73,-2.477 -2.21,-4.446 -0.52,-1.984 -1.25,-3.953 -2.23,-5.921 -0.99,-2.961 -1.74,-5.692 -2.23,-8.149 -0.5,-2.476 -0.73,-4.695 -0.73,-6.664 0,-9.891 2.71,-19.027 8.15,-27.406 5.42,-8.399 12.08,-16.067 20,-22.961 11.84,-8.887 26.89,-17.031 45.17,-24.442 18.26,-7.406 37.27,-14.582 57.03,-21.476 0.98,0 1.98,-0.254 2.97,-0.742 0.97,-0.508 2.45,-1.25 4.45,-2.227 12.82,-3.957 25.91,-8.398 39.24,-13.332 13.34,-4.949 25.42,-10.367 36.3,-16.297 25.67,-12.84 45.92,-29.875 60.74,-51.101 14.81,-21.25 25.18,-43.215 31.11,-65.918 0.97,-6.926 1.96,-13.586 2.96,-20 0.97,-6.438 1.48,-12.59 1.48,-18.52 0,-1.988 0,-3.953 0,-5.926 0,-1.98 0,-4.441 0,-7.402 -2.97,-31.621 -14.81,-61.727 -35.55,-90.3593 -20.75,-28.6563 -49.89,-48.8868 -87.41,-60.7344 -9.88,-2.9688 -20.24,-5.6719 -31.1,-8.1524 -10.88,-2.4531 -21.74,-4.6679 -32.59,-6.6601 -8.89,-0.9805 -17.77,-1.7227 -26.67,-2.2305 -8.89,-0.4844 -17.28,-0.7422 -25.17,-0.7422 -47.41,0 -92.85,10.3711 -136.29,31.1133 -43.47,20.7344 -77.03,53.332 -100.74,97.7656 l 112.59,62.219" /><path
         id="path46"
         style="fill:#211b19;fill-opacity:1;fill-rule:nonzero;stroke:none"
         d="m 9709.99,509.578 h -106.66 v 117.027 h 106.66 v 226.649 h 133.32 V 626.605 H 9947 V 509.578 H 9843.31 V 34.0703 H 9709.99 V 509.578" /></g></g></svg>